<!-- Generated by IcoMoon.io -->
<svg version="1.1" xmlns="http://www.w3.org/2000/svg" width="1024" height="1024" viewBox="0 0 1024 1024">
<title></title>
<g id="icomoon-ignore">
</g>
<path fill="#000" d="M511.999 511.999c-261.12 0-460.8-107.52-460.8-256s199.68-256 460.8-256 460.8 107.52 460.8 256-199.68 256-460.8 256zM511.999 102.399c-204.8 0-358.401 81.92-358.401 153.6s153.6 153.6 358.401 153.6c204.8 0 358.401-81.92 358.401-153.6s-153.6-153.6-358.401-153.6z"></path>
<path fill="#000" d="M511.999 767.999c-261.12 0-460.8-107.52-460.8-256h102.4c0 71.68 153.6 153.6 358.401 153.6s358.401-81.92 358.401-153.6h102.4c0 148.48-199.68 256-460.8 256z"></path>
<path fill="#000" d="M511.999 1024c-261.12 0-460.8-107.52-460.8-256v-512.001h102.4v512.001c0 71.68 153.6 153.6 358.401 153.6s358.401-81.92 358.401-153.6v-512.001h102.4v512.001c0 148.48-199.68 256-460.8 256z"></path>
</svg>
