<!-- Generated by IcoMoon.io -->
<svg version="1.1" xmlns="http://www.w3.org/2000/svg" width="1024" height="1024" viewBox="0 0 1024 1024">
<title></title>
<g id="icomoon-ignore">
</g>
<path fill="#000" d="M855.040 1024h-686.080c-92.16 0-168.96-77.824-168.96-171.008v-373.76c0-47.104 20.48-93.184 56.32-124.928l343.040-311.296c66.56-57.344 158.72-57.344 225.28 0l343.040 311.296c35.84 30.72 56.32 77.824 56.32 124.928v373.76c-5.12 98.304-76.8 171.008-168.96 171.008zM512 105.472c-15.36 0-30.72 5.12-46.080 15.36l-343.040 311.296c-15.36 10.24-20.48 30.72-20.48 52.224v373.76c0 35.84 30.72 67.584 66.56 67.584h680.96c35.84 0 66.56-30.72 66.56-67.584v-373.76c0-20.48-10.24-35.84-20.48-52.224l-343.040-311.296c-10.24-10.24-25.6-15.36-40.96-15.36z"></path>
</svg>
