<!-- Generated by IcoMoon.io -->
<svg version="1.1" xmlns="http://www.w3.org/2000/svg" width="1024" height="1024" viewBox="0 0 1024 1024">
<title></title>
<g id="icomoon-ignore">
</g>
<path fill="#000" d="M512 0c-148.878 0-270 121.122-270 270s121.122 270 270 270 270-121.122 270-270-121.122-270-270-270zM512 480c-115.794 0-210-94.206-210-210s94.206-210 210-210c115.794 0 210 94.206 210 210s-94.206 210-210 210z"></path>
<path fill="#000" d="M847.932 716.39c-73.92-75.056-171.914-116.39-275.932-116.39h-120c-104.016 0-202.012 41.334-275.932 116.39-73.558 74.688-114.068 173.276-114.068 277.61 0 16.568 13.432 30 30 30h840c16.568 0 30-13.432 30-30 0-104.334-40.51-202.922-114.068-277.61zM123.32 964c15.030-170.172 156.702-304 328.68-304h120c171.978 0 313.65 133.828 328.68 304h-777.36z"></path>
</svg>
